# xmcd
#
# Track frame offsets:
#	150
#	17755
#	30675
#	43297
#	72385
#	81882
#	99382
#	109922
#	129402
#	146037
#	158625
#	167630
#	183642
#	193490
#
# Disc length: 2713 seconds
#
# Revision: 0
# Processed by: cddbd v1.4PL0 Copyright (c) Steve Scherf et al.
# Submitted via: EasyCDDAExtractor 4.6.0.1
#
DISCID=c90a970e
DTITLE=Dave Lindholm - Just
DYEAR=1998
DGENRE=Blues
TTITLE0=Dust My Broom
TTITLE1=Long Grey Mare
TTITLE2=Boom Boom
TTITLE3=House Of The Rising Sun
TTITLE4=I Got A Woman
TTITLE5=Catfish Blues
TTITLE6=Do I have To Throw Stones
TTITLE7=Hoochie Coochie Man
TTITLE8=Baby, Please
TTITLE9=Everyday I Have The Blues
TTITLE10=That's How I Feel
TTITLE11=(Love Me) Now
TTITLE12=Lousiana Blues
TTITLE13=Walk On
EXTD=
EXTT0=
EXTT1=
EXTT2=
EXTT3=
EXTT4=
EXTT5=
EXTT6=
EXTT7=
EXTT8=
EXTT9=
EXTT10=
EXTT11=
EXTT12=
EXTT13=
PLAYORDER=
